<?xml version="1.0" encoding="utf-8"?>
<!-- Generator: Adobe Illustrator 19.0.0, SVG Export Plug-In . SVG Version: 6.00 Build 0)  -->
<svg version="1.1" id="Capa_1" xmlns="http://www.w3.org/2000/svg" xmlns:xlink="http://www.w3.org/1999/xlink" x="0px" y="0px"
	 viewBox="0 -100 800 800" style="enable-background:new 0 -100 800 800;" xml:space="preserve">
<style type="text/css">
	.st0{fill:#FFFFFF;}
</style>
<g>
	<path class="st0" d="M789.7,641.9L609.5,461.5c48.6-59.2,77.7-135.1,77.7-217.6c0-189.7-153.8-343.6-343.6-343.6S0,54.2,0,243.9
		s153.8,343.6,343.6,343.6c82.9,0,158.9-29.4,218.3-78.3l180.3,180.3c21,19.2,40.8,6.9,47.6,0C803.4,675.8,803.4,655.5,789.7,641.9z
		 M67,243.9C67,91.2,190.9-32.6,343.6-32.6S620.2,91.2,620.2,243.9S496.4,520.4,343.7,520.4S67,396.6,67,243.9z"/>
</g>
</svg>
